<?xml version="1.0" encoding="UTF-8"?>
<svg width="996px" height="675px" viewBox="0 0 996 675" version="1.1" xmlns="http://www.w3.org/2000/svg" xmlns:xlink="http://www.w3.org/1999/xlink">
    <!-- Generator: Sketch 59.1 (86144) - https://sketch.com -->
    <title>undraw_solution_mindset_34bi</title>
    <desc>Created with Sketch.</desc>
    <g id="Page-1" stroke="none" stroke-width="1" fill="none" fill-rule="evenodd">
        <g id="undraw_solution_mindset_34bi" fill-rule="nonzero">
            <circle id="Oval" fill="#F2F2F2" cx="138.92463" cy="526.44909" r="138.92463"></circle>
            <path d="M306.97863,588.070247 C166.940396,588.070247 46.4031494,489.147853 19.0827028,351.800482 C-8.23774366,214.453111 65.2677417,76.9333349 194.646112,23.3428091 C324.024481,-30.2477168 473.242024,15.0167292 551.043193,131.454202 C628.844362,247.891676 613.560428,403.072688 514.53844,502.09467 C459.610778,557.32326 384.870864,588.281691 306.97863,588.070247 Z M306.97863,3.24072 C146.35905,3.24072 15.68504,133.91419 15.68504,294.53431 C15.68504,455.15443 146.35904,585.82844 306.97863,585.82844 C467.59822,585.82844 598.27222,455.15443 598.27222,294.53428 C598.27222,133.91413 467.5982,3.24072 306.97863,3.24072 Z" id="Shape" fill="#2F2E41"></path>
            <polygon id="Path" fill="#007BFF" points="459.908 387.443 459.875 387.46 315.201 468.019 156.779 388.808 154.049 387.443 162.271 223.003 305.334 121.05 306.913 122.037 454.975 214.781"></polygon>
            <polygon id="Path" fill="#000000" opacity="0.3" points="459.875 387.46 315.201 468.019 156.779 388.808 297.112 290.424"></polygon>
            <polygon id="Path" fill="#000000" opacity="0.1" points="459.908 387.443 297.112 290.424 306.913 122.037 454.975 214.781"></polygon>
            <polygon id="Path" fill="#F2F2F2" points="160.165 273.745 159.361 272.607 304.021 170.5 456.834 266.309 456.094 267.49 304.066 172.173"></polygon>
            <polygon id="Path" fill="#F2F2F2" points="157.361 329.61 156.579 328.458 300.505 230.743 300.882 230.957 456.963 319.417 456.275 320.629 300.571 232.382"></polygon>
            <polygon id="Path" fill="#F2F2F2" points="212.276 416.965 211.542 415.781 356.595 325.9 356.595 153.594 357.988 153.594 357.988 326.676"></polygon>
            <polygon id="Path" fill="#F2F2F2" points="269.209 445.428 268.469 444.248 408.138 356.645 408.138 185.879 409.531 185.879 409.531 357.416"></polygon>
            <polygon id="Path" fill="#F2F2F2" points="407.612 416.982 245.176 326.73 245.199 326.296 253.75 157.281 255.141 157.352 246.612 325.933 408.289 415.764"></polygon>
            <polygon id="Path" fill="#F2F2F2" points="356.507 445.455 195.895 361.288 195.92 360.841 205.388 191.742 206.779 191.82 197.337 360.471 357.154 444.221"></polygon>
            <circle id="Oval" fill="#FFC107" cx="487.35658" cy="64.86079" r="56.018"></circle>
            <rect id="Rectangle" fill="#2F2E41" x="32.49044" y="663.13328" width="963.50956" height="2.24072"></rect>
            <path d="M884.13709,361.81446 L896.94161,396.88771 C896.94161,396.88771 883.58037,436.97143 896.94161,438.08487 C910.30285,439.19831 911.973,399.67128 911.973,399.67128 L904.73567,357.36069 L884.13709,361.81446 Z" id="Path" fill="#FFB9B9"></path>
            <path d="M890.261,247.13049 L899.72521,256.59471 L899.72521,301.68889 C899.72521,301.68889 905.29239,310.03966 904.17896,312.26653 C903.06553,314.4934 901.95208,314.49341 903.06552,316.16353 C904.17896,317.83365 905.29239,318.94712 904.17896,320.06053 C903.06552,321.545109 903.06552,323.586411 904.17896,325.07099 C905.29239,326.18443 907.51927,327.85459 905.84911,329.52474 C904.17895,331.19489 901.95211,330.08146 904.17896,336.20536 C906.40581,342.32926 910.30286,343.99942 909.18942,346.22629 C908.07598,348.45316 908.07599,354.02035 908.07599,354.02035 L884.1371,357.36066 L879.12663,294.45149 L890.261,247.13049 Z" id="Path" fill="#D0CDE1"></path>
            <polygon id="Path" fill="#3F3D56" points="909.189 353.464 881.353 354.577 882.467 366.268 906.963 361.814"></polygon>
            <polygon id="Path" fill="#FFB9B9" points="832.641 188.953 829.3 222.357 863.26 227.367 865.765 208.16 868.271 188.953"></polygon>
            <polygon id="Path" fill="#000000" opacity="0.1" points="832.641 188.953 829.3 222.357 863.26 227.367 865.765 208.16 868.271 188.953"></polygon>
            <path d="M758.87547,347.89649 L777.8039,388.53694 C777.8039,388.53694 781.14421,407.46536 786.15467,408.02208 C791.16513,408.5788 796.1756,388.53694 796.1756,388.53694 L789.495,377.95928 L781.70094,347.89649 L758.87547,347.89649 Z" id="Path" fill="#FFB9B9"></path>
            <path d="M798.40247,384.63991 L782.81436,409.13552 C782.81436,409.13552 767.783,642.40048 770.00984,640.73028 C772.23668,639.06008 779.47405,638.50341 782.25764,634.04966 C785.04123,629.59591 802.2995,634.04966 802.2995,634.04966 L812.32043,623.47202 L812.32043,615.12128 C812.32043,613.45113 832.36229,485.96264 832.36229,485.96264 L832.36229,518.25228 C832.36229,518.25228 826.23839,636.83328 836.25929,635.71984 C846.28019,634.6064 866.87879,627.92578 866.87879,627.92578 C866.87879,627.92578 896.38486,406.3519 887.47737,398.00113 C878.56988,389.65036 874.67285,370.72193 874.67285,370.72193 L798.40247,384.63991 Z" id="Path" fill="#2F2E41"></path>
            <circle id="Oval" fill="#FFB9B9" cx="851.29071" cy="173.08696" r="26.72248"></circle>
            <path d="M791.72185,227.64535 L787.82485,225.41848 C787.82485,225.41848 770.56658,237.10957 764.9994,263.27532 C759.43222,289.44107 755.53518,296.1217 755.53518,296.1217 C755.53518,296.1217 749.968,297.23514 753.86503,301.13217 C757.76206,305.0292 757.76203,304.47248 754.42175,306.69935 C751.08147,308.92622 748.85457,304.47248 751.08144,308.92622 C753.30831,313.37996 756.0919,312.26653 753.86503,315.05013 C751.63816,317.83373 747.74113,317.83372 749.96803,320.06059 C752.19493,322.28746 747.74116,327.29793 750.52475,329.5248 C753.30834,331.75167 754.42175,332.30839 754.42175,336.20542 C754.404736,338.479849 754.781437,340.740069 755.53518,342.88604 L784.48454,342.88604 C784.48454,342.88604 778.91735,332.30839 780.58754,330.08152 C782.25773,327.85465 782.81441,325.62777 781.70097,324.51434 C780.58753,323.40091 777.24723,325.62777 780.58754,322.84418 C783.92785,320.06059 785.04128,321.73075 783.92785,318.39044 C782.81442,315.05013 780.58754,316.72028 782.81441,315.05013 C785.04128,313.37998 786.71141,313.93669 785.598,312.26653 C784.48459,310.59637 782.25769,310.59638 784.48457,309.48294 C786.71145,308.3695 788.38157,309.48294 787.82488,306.69935 C787.26819,303.91576 786.71144,305.0292 787.82488,303.91576 C788.93832,302.80232 800.6294,264.94548 800.6294,263.83204 C800.6294,262.7186 791.72185,227.64535 791.72185,227.64535 Z" id="Path" fill="#D0CDE1"></path>
            <polygon id="Path" fill="#3F3D56" points="786.155 340.659 751.081 342.886 759.989 351.237 784.485 351.794"></polygon>
            <path d="M796.1756,382.41304 L788.93826,395.77428 C788.93826,395.77428 810.65026,398.55787 818.44433,401.34146 C826.2384,404.12505 846.28025,408.02208 846.28025,408.02208 L851.29071,388.53694 L796.1756,382.41304 Z" id="Path" fill="#3F3D56"></path>
            <polygon id="Path" fill="#3F3D56" points="859.641 388.537 865.765 406.909 890.261 401.898 887.477 384.64"></polygon>
            <path d="M869.66241,208.71693 C869.66241,208.71693 867.99226,207.6035 864.09523,209.83037 C860.1982,212.05724 847.39368,213.17068 841.26978,206.49006 C835.14588,199.80944 830.69213,194.24228 829.022,195.35569 C827.35187,196.4691 826.23841,209.27369 826.23841,209.27369 L820.67122,213.72744 L787.82483,225.41848 L790.60842,300.57548 L795.61888,317.83375 C795.61888,317.83375 791.72188,331.19499 796.73232,338.98904 C801.74276,346.78309 793.94873,349.56669 793.94873,349.56669 C793.94873,349.56669 792.27857,351.79356 793.39201,357.36075 C794.50545,362.92794 792.27857,383.52651 792.27857,383.52651 C792.27857,383.52651 839.59963,404.6818 889.14757,386.3101 L883.58039,365.1548 L880.7968,317.83375 C880.7968,317.83375 883.58039,310.03969 883.02367,306.69938 C882.46695,303.35907 899.72522,256.59474 899.72522,256.59474 C899.72522,256.59474 896.94163,233.21257 882.46695,228.2021 C867.99227,223.19163 865.76541,218.18117 865.76541,218.18117 C865.76541,218.18117 872.446,210.94381 869.66241,208.71693 Z" id="Path" fill="#D0CDE1"></path>
            <path d="M824.38294,176.51014 C824.38294,176.51014 821.60794,172.34766 822.67525,167.86498 C823.312978,165.319932 823.564824,162.693531 823.42236,160.07367 C824.61623,156.190348 826.115109,152.407443 827.905,148.76028 C830.14634,144.70452 829.079,142.99684 836.12324,141.71607 C843.16748,140.4353 840.28572,131.2565 858.8568,141.18242 C860.138035,142.971328 862.369858,143.813526 864.51351,143.31703 C868.35581,142.56992 869.7433,147.90644 869.7433,147.90644 C869.7433,147.90644 872.30483,146.41221 873.2654,148.54682 C874.22597,150.68143 881.0751,147.26567 881.0751,161.67427 C881.0751,176.08287 873.28104,188.95346 873.28104,188.95346 C873.28104,188.95346 873.85242,164.71646 861.15151,162.26167 C848.4506,159.80688 834.78911,152.65594 831.48046,161.83475 C829.694473,166.986368 827.312472,171.91158 824.38294,176.51014 L824.38294,176.51014 Z" id="Path" fill="#2F2E41"></path>
            <ellipse id="Oval" fill="#FFB9B9" cx="873.55944" cy="178.9325" rx="2.50523" ry="3.34031"></ellipse>
            <path d="M859.36332,625.95319 L863.27862,637.69911 C863.27862,637.69911 863.27862,649.44503 867.19393,655.31799 C871.10924,661.19095 875.02454,673.91569 859.36332,674.89451 C843.7021,675.87333 836.85032,670.00038 836.85032,670.00038 C836.85032,670.00038 839.7868,662.16977 836.85032,659.23329 C833.91384,656.29681 836.85032,650.42385 836.85032,650.42385 L839.7868,626.93202 L859.36332,625.95319 Z" id="Path" fill="#2F2E41"></path>
            <path d="M783.0933,625.95319 L779.178,637.69911 C779.178,637.69911 779.178,649.44503 775.2627,655.31799 C771.3474,661.19095 767.43209,673.91569 783.09331,674.89451 C798.75453,675.87333 805.60631,670.00038 805.60631,670.00038 C805.60631,670.00038 802.66983,662.16977 805.60631,659.23329 C808.54279,656.29681 805.60631,650.42385 805.60631,650.42385 L802.66983,626.93202 L783.0933,625.95319 Z" id="Path" fill="#2F2E41"></path>
        </g>
    </g>
</svg>